<svg width="21" height="16" viewBox="0 0 21 16" fill="none" xmlns="http://www.w3.org/2000/svg">
<path d="M20.4999 1.89442C19.7641 2.21599 18.9733 2.43257 18.1433 2.53019C18.9908 2.0306 19.6416 1.23896 19.9474 0.295568C19.1549 0.758243 18.2766 1.09458 17.3416 1.27588C16.5941 0.49081 15.5266 0.000244141 14.3466 0.000244141C11.6974 0.000244141 9.75077 2.43339 10.3491 4.95923C6.93994 4.79106 3.91661 3.18318 1.89244 0.739375C0.817439 2.5548 1.33494 4.92969 3.16161 6.13232C2.48994 6.11099 1.85661 5.92969 1.30411 5.62699C1.25911 7.49819 2.62161 9.24881 4.59494 9.63847C4.01744 9.7927 3.38494 9.82879 2.74161 9.70738C3.26327 11.312 4.77827 12.4793 6.57494 12.5121C4.84994 13.8436 2.67661 14.4383 0.499939 14.1856C2.31577 15.3317 4.47327 16.0002 6.78994 16.0002C14.4083 16.0002 18.7124 9.66636 18.4524 3.98548C19.2541 3.41534 19.9499 2.7041 20.4999 1.89442V1.89442Z" fill="#F3F5F6"/>
</svg>
